<svg width="19" height="28" viewBox="0 0 19 28" fill="none" xmlns="http://www.w3.org/2000/svg">
<rect x="1.21412" y="3.72779" width="13.4671" height="17.5072" fill="url(#paint0_linear_65_36)" stroke="white" stroke-width="0.673355"/>
<path d="M8.82123 20.0239H2.22248V19.659C2.571 19.659 2.85704 19.6261 3.08062 19.5603C3.30419 19.488 3.48174 19.3927 3.61325 19.2743C3.74477 19.1494 3.83354 19.008 3.87957 18.8502C3.93217 18.6923 3.95848 18.5247 3.95848 18.3471V3.52212C3.95848 3.3906 3.93217 3.24923 3.87957 3.09798C3.83354 2.94674 3.74477 2.80865 3.61325 2.68371C3.48831 2.5522 3.31405 2.4437 3.09048 2.35821C2.8669 2.27273 2.57757 2.22999 2.22248 2.22999V1.86503H7.08524V18.2879C7.08524 18.4194 7.10497 18.5641 7.14442 18.7219C7.19045 18.8797 7.27265 19.0277 7.39101 19.1658C7.51595 19.3039 7.69021 19.4222 7.91378 19.5209C8.14393 19.6129 8.44642 19.659 8.82123 19.659V20.0239ZM18.3199 19.9056C17.7215 20.1489 17.1626 20.3133 16.6431 20.3987C16.1302 20.4842 15.6666 20.527 15.2523 20.527C14.6671 20.527 14.1081 20.4152 13.5755 20.1916C13.0429 19.968 12.5365 19.6721 12.0565 19.3039C11.583 18.9356 11.1326 18.5148 10.7052 18.0413C10.2843 17.5679 9.88321 17.0846 9.50182 16.5914C9.127 16.0916 8.77192 15.5985 8.43655 15.1119C8.10777 14.6252 7.79871 14.188 7.50937 13.8C8.25901 13.2148 8.9659 12.5868 9.63005 11.916C9.91281 11.6333 10.1988 11.3275 10.4882 10.9987C10.7841 10.6634 11.0636 10.3149 11.3266 9.95319C11.5962 9.58495 11.8428 9.20684 12.0664 8.81887C12.2899 8.42433 12.4741 8.0265 12.6187 7.62538C12.6319 7.5925 12.6417 7.55962 12.6483 7.52674C12.6549 7.49386 12.6582 7.4577 12.6582 7.41824C12.6582 7.29988 12.6253 7.17165 12.5595 7.03356C12.5004 6.89547 12.3984 6.76724 12.2538 6.64888C12.1157 6.53052 11.9316 6.43517 11.7014 6.36284C11.4778 6.28393 11.2049 6.24447 10.8827 6.24447V5.87952H16.2978C16.0808 6.74752 15.7751 7.54647 15.3805 8.27637C14.9926 8.99971 14.5454 9.65728 14.0391 10.2491C13.5393 10.8409 12.9968 11.3637 12.4116 11.8174C11.8329 12.2711 11.2444 12.6624 10.646 12.9912C11.4154 13.8657 12.1255 14.7042 12.7765 15.5064C13.4341 16.3086 14.0358 17.0155 14.5816 17.6271C15.1339 18.2386 15.6304 18.7285 16.071 19.0967C16.5181 19.4584 16.916 19.6392 17.2645 19.6392C17.3565 19.6392 17.4848 19.6294 17.6492 19.6097C17.8136 19.5899 17.9911 19.5406 18.1818 19.4617L18.3199 19.9056Z" fill="white"/>
<defs>
<linearGradient id="paint0_linear_65_36" x1="7.94767" y1="3.39111" x2="7.94767" y2="21.5717" gradientUnits="userSpaceOnUse">
<stop stop-color="#C50000"/>
<stop offset="0.2" stop-color="#C97800"/>
<stop offset="0.4" stop-color="#CFD21E"/>
<stop offset="0.6" stop-color="#59CB3D"/>
<stop offset="0.8" stop-color="#336BD7"/>
<stop offset="1" stop-color="#871CC9"/>
</linearGradient>
</defs>
</svg>
